<svg xmlns="http://www.w3.org/2000/svg" width="1000" height="1000" viewBox="0 0 264.58333 264.58334">
  <g transform="translate(0,-32.416658)">
    <g transform="matrix(-0.06557174,-5.2804803,5.2804803,-0.06557174,-635.87122,1668.1001)">
      <path d="m 281.77472,150.79882 a 9.027028,9.027028 0 0 0 -9.02684,9.02683 9.027028,9.027028 0 0 0 9.02684,9.02736 9.027028,9.027028 0 0 0 9.02684,-9.02736 9.027028,9.027028 0 0 0 -9.02684,-9.02683 z m 0,9.82213 a 3.1805073,3.1805073 0 0 1 3.18069,3.18069 3.1805073,3.1805073 0 0 1 -3.18069,3.18017 3.1805073,3.1805073 0 0 1 -3.18069,-3.18017 3.1805073,3.1805073 0 0 1 3.18069,-3.18069 z" style="fill:#f4a100"/>
      <path d="m 1045.6843,522.82268 -0.049,15.60701 39.9511,0 V 522.375 l -35.9609,-0.3125 z" transform="matrix(0.26458333,0,0,0.26458333,0,11.249992)" style="fill:#f4a100"/>
      <path d="m 283.20553,150.7902 a 9.0270279,9.0270279 0 0 0 -9.02684,9.02683 9.0270279,9.0270279 0 0 0 9.02684,9.02736 9.0270279,9.0270279 0 0 0 9.02684,-9.02736 9.0270279,9.0270279 0 0 0 -9.02684,-9.02683 z m 0,9.82213 a 3.1805073,3.1805073 0 0 1 3.18069,3.18069 3.1805073,3.1805073 0 0 1 -3.18069,3.18017 3.1805073,3.1805073 0 0 1 -3.18069,-3.18017 3.1805073,3.1805073 0 0 1 3.18069,-3.18069 z" style="fill:#ffbf3e"/>
      <path d="m 278.09096,132.75621 0,1.38626 0,1.72651 2.28342,2.02329 -2.28342,2.31444 0,1.47827 1.50784,1.0606 -1.50784,1.47596 0,5.07924 v 2.99979 l 7.28589,0 v -19.54436 l -2.87924,-5.00072 -0.82117,-0.006 z" style="fill:#f4a100"/>
      <rect ry="0" y="149.38702" x="277.73312" height="5.1449385" width="10.57051" style="fill:#ffbf3e"/>
      <path d="m 279.38083,132.25346 v 1.42652 1.77665 l 2.28342,2.08205 -2.28342,2.38165 v 1.52119 l 1.50784,1.09141 -1.50784,1.51883 v 5.22673 0.65606 l 7.28589,0.0661 v -17.74724 l -4.16911,-4.49792 z" style="fill:#ffbf3e"/>
      <g>
        <path d="m 285.23516,89.291923 a 9.0270283,9.0270283 0 0 0 -9.02684,9.02683 9.0270283,9.0270283 0 0 0 9.02684,9.027357 9.0270283,9.0270283 0 0 0 9.02684,-9.027357 9.0270283,9.0270283 0 0 0 -9.02684,-9.02683 z m 0,9.82213 a 3.1805073,3.1805073 0 0 1 3.18069,3.180687 3.1805073,3.1805073 0 0 1 -3.18069,3.18017 3.1805073,3.1805073 0 0 1 -3.18069,-3.18017 3.1805073,3.1805073 0 0 1 3.18069,-3.180687 z" style="fill:#f4a100"/>
        <path d="m 279.56008,87.940893 v 3.07372 h 10.57039 v -4.24781 l -9.51465,-0.0827 z" style="fill:#f4a100"/>
        <path d="m 286.10808,88.095303 a 9.0270278,9.0270278 0 0 0 -9.02684,9.02683 9.0270278,9.0270278 0 0 0 9.02684,9.027357 9.0270278,9.0270278 0 0 0 9.02684,-9.027357 9.0270278,9.0270278 0 0 0 -9.02684,-9.02683 z m 0,9.82213 a 3.1805073,3.1805073 0 0 1 3.18069,3.180687 3.1805073,3.1805073 0 0 1 -3.18069,3.18017 3.1805073,3.1805073 0 0 1 -3.18069,-3.18017 3.1805073,3.1805073 0 0 1 3.18069,-3.180687 z" style="fill:#ffbf3e"/>
        <path d="m 281.60172,70.531073 v 1.38626 1.72651 l 2.28342,2.02329 -2.28342,2.31444 v 1.47827 l 1.50784,1.0606 -1.50784,1.47596 v 5.07924 2.99979 h 7.28589 v -19.54436 l -4.16911,-4.37098 z" style="fill:#f4a100"/>
        <rect style="fill:#ffbf3e" width="10.57051" height="5.1449385" x="280.63571" y="86.692116" ry="0"/>
        <path d="m 282.28338,69.558563 v 1.42652 1.77665 l 2.28342,2.08205 -2.28342,2.38164 v 1.5212 l 1.50784,1.09141 -1.50784,1.51883 v 5.22673 0.65606 l 7.28589,0.0661 v -17.74724 l -4.16911,-4.49792 z" style="fill:#ffbf3e"/>
      </g>
    </g>
  </g>
</svg>
